<svg width="125" height="142" viewBox="0 0 125 142" fill="none" xmlns="http://www.w3.org/2000/svg">
<g clip-path="url(#clip0_289_4440)">
<path d="M62.7913 17.7209C67.6423 17.7209 71.5748 13.754 71.5748 8.86046C71.5748 3.96697 67.6423 0 62.7913 0C57.9403 0 54.0078 3.96697 54.0078 8.86046C54.0078 13.754 57.9403 17.7209 62.7913 17.7209Z" fill="#8E8E8E"/>
<path d="M62.7913 48.7878C67.6423 48.7878 71.5748 44.8209 71.5748 39.9274C71.5748 35.0339 67.6423 31.0669 62.7913 31.0669C57.9403 31.0669 54.0078 35.0339 54.0078 39.9274C54.0078 44.8209 57.9403 48.7878 62.7913 48.7878Z" fill="#E8E8E8"/>
<path d="M62.7913 79.8547C67.6423 79.8547 71.5748 75.8878 71.5748 70.9943C71.5748 66.1008 67.6423 62.1338 62.7913 62.1338C57.9403 62.1338 54.0078 66.1008 54.0078 70.9943C54.0078 75.8878 57.9403 79.8547 62.7913 79.8547Z" fill="white"/>
<path d="M62.7913 110.922C67.6423 110.922 71.5748 106.955 71.5748 102.062C71.5748 97.1681 67.6423 93.2012 62.7913 93.2012C57.9403 93.2012 54.0078 97.1681 54.0078 102.062C54.0078 106.955 57.9403 110.922 62.7913 110.922Z" fill="#3B3B41"/>
<path d="M8.78349 110.922C13.6345 110.922 17.567 106.955 17.567 102.062C17.567 97.1681 13.6345 93.2012 8.78349 93.2012C3.9325 93.2012 0 97.1681 0 102.062C0 106.955 3.9325 110.922 8.78349 110.922Z" fill="#8E8E8E"/>
<path d="M62.7913 142C67.6423 142 71.5748 138.033 71.5748 133.14C71.5748 128.246 67.6423 124.279 62.7913 124.279C57.9403 124.279 54.0078 128.246 54.0078 133.14C54.0078 138.033 57.9403 142 62.7913 142Z" fill="#3B3B41"/>
<path d="M116.217 110.922C121.068 110.922 125.001 106.955 125.001 102.062C125.001 97.1681 121.068 93.2012 116.217 93.2012C111.366 93.2012 107.434 97.1681 107.434 102.062C107.434 106.955 111.366 110.922 116.217 110.922Z" fill="#8E8E8E"/>
<path d="M116.217 79.8547C121.068 79.8547 125.001 75.8878 125.001 70.9943C125.001 66.1008 121.068 62.1338 116.217 62.1338C111.366 62.1338 107.434 66.1008 107.434 70.9943C107.434 75.8878 111.366 79.8547 116.217 79.8547Z" fill="#3B3B41"/>
<path d="M116.217 48.7878C121.068 48.7878 125.001 44.8209 125.001 39.9274C125.001 35.0339 121.068 31.0669 116.217 31.0669C111.366 31.0669 107.434 35.0339 107.434 39.9274C107.434 44.8209 111.366 48.7878 116.217 48.7878Z" fill="#3B3B41"/>
<path d="M8.78349 48.7878C13.6345 48.7878 17.567 44.8209 17.567 39.9274C17.567 35.0339 13.6345 31.0669 8.78349 31.0669C3.9325 31.0669 0 35.0339 0 39.9274C0 44.8209 3.9325 48.7878 8.78349 48.7878Z" fill="#3B3B41"/>
<path d="M8.78349 79.8547C13.6345 79.8547 17.567 75.8878 17.567 70.9943C17.567 66.1008 13.6345 62.1338 8.78349 62.1338C3.9325 62.1338 0 66.1008 0 70.9943C0 75.8878 3.9325 79.8547 8.78349 79.8547Z" fill="#3B3B41"/>
<path d="M35.596 64.7258C40.447 64.7258 44.3795 60.7588 44.3795 55.8653C44.3795 50.9718 40.447 47.0049 35.596 47.0049C30.745 47.0049 26.8125 50.9718 26.8125 55.8653C26.8125 60.7588 30.745 64.7258 35.596 64.7258Z" fill="#3B3B41"/>
<path d="M89.3382 64.7258C94.1892 64.7258 98.1217 60.7588 98.1217 55.8653C98.1217 50.9718 94.1892 47.0049 89.3382 47.0049C84.4872 47.0049 80.5547 50.9718 80.5547 55.8653C80.5547 60.7588 84.4872 64.7258 89.3382 64.7258Z" fill="#3B3B41"/>
<path d="M35.596 96.1028C40.447 96.1028 44.3795 92.1358 44.3795 87.2423C44.3795 82.3488 40.447 78.3818 35.596 78.3818C30.745 78.3818 26.8125 82.3488 26.8125 87.2423C26.8125 92.1358 30.745 96.1028 35.596 96.1028Z" fill="#E8E8E8"/>
<path d="M89.3382 96.1028C94.1892 96.1028 98.1217 92.1358 98.1217 87.2423C98.1217 82.3488 94.1892 78.3818 89.3382 78.3818C84.4872 78.3818 80.5547 82.3488 80.5547 87.2423C80.5547 92.1358 84.4872 96.1028 89.3382 96.1028Z" fill="#E8E8E8"/>
<path d="M35.596 127.469C40.447 127.469 44.3795 123.502 44.3795 118.609C44.3795 113.715 40.447 109.748 35.596 109.748C30.745 109.748 26.8125 113.715 26.8125 118.609C26.8125 123.502 30.745 127.469 35.596 127.469Z" fill="#3B3B41"/>
<path d="M89.3382 127.469C94.1892 127.469 98.1217 123.502 98.1217 118.609C98.1217 113.715 94.1892 109.748 89.3382 109.748C84.4872 109.748 80.5547 113.715 80.5547 118.609C80.5547 123.502 84.4872 127.469 89.3382 127.469Z" fill="#3B3B41"/>
<path d="M35.596 33.3596C40.447 33.3596 44.3795 29.3926 44.3795 24.4991C44.3795 19.6056 40.447 15.6387 35.596 15.6387C30.745 15.6387 26.8125 19.6056 26.8125 24.4991C26.8125 29.3926 30.745 33.3596 35.596 33.3596Z" fill="#3B3B41"/>
<path d="M89.3382 33.3596C94.1892 33.3596 98.1217 29.3926 98.1217 24.4991C98.1217 19.6056 94.1892 15.6387 89.3382 15.6387C84.4872 15.6387 80.5547 19.6056 80.5547 24.4991C80.5547 29.3926 84.4872 33.3596 89.3382 33.3596Z" fill="#3B3B41"/>
</g>
<defs>
<clipPath id="clip0_289_4440">
<rect width="125" height="142" fill="white"/>
</clipPath>
</defs>
</svg>
